<svg xmlns="http://www.w3.org/2000/svg" viewBox="0 0 86.61 84.89"><defs><style>.cls-1{fill:#fbb049;}.cls-2{fill:#97a553;}.cls-3{fill:#1b567c;}</style></defs><g id="Laag_2" data-name="Laag 2"><g id="Layer_1" data-name="Layer 1"><path class="cls-1" d="M86.61,49H50V84.89H43.87L0,50.23V38.87H43V0h7V38.87H86.61ZM42,49H18.87c-3.62,0-7.25-.12-10.87-.36V49c4.05,2.43,7,4.37,10.23,6.55L41.79,74.79H42Z"/><path class="cls-2" d="M81.27,83.16a24.8,24.8,0,0,1-9.63,1.73c-10.12,0-16.71-6.1-16.71-15.22S62,53.84,73,53.84a22.54,22.54,0,0,1,8.46,1.54L80,59.57A15.57,15.57,0,0,0,73,58.16c-7.69,0-11.85,5.05-11.85,11.27,0,6.9,5,11.15,11.64,11.15a19.08,19.08,0,0,0,7.49-1.48Z"/><path class="cls-3" d="M17.68,9.92H3V4.33H38.65V9.92H24l-.11,24h-6.3Z"/></g></g></svg>