<svg xmlns="http://www.w3.org/2000/svg" viewBox="0 0 182.39 94.99"><defs><style>.cls-1{fill:#fbb049;}.cls-2,.cls-4{fill:#97a553;}.cls-3,.cls-7{fill:#1b567c;}.cls-4,.cls-7{font-size:38.47px;font-family:MyriadPro-Regular, Myriad Pro;}.cls-5{letter-spacing:0em;}.cls-6{letter-spacing:-0.01em;}</style></defs><g id="Laag_2" data-name="Laag 2"><g id="Layer_1" data-name="Layer 1"><path class="cls-1" d="M171,51H50V83H43.87L0,52.12V42H43V0h7V42H171ZM42,51H18.87c-3.62,0-7.25-.11-10.87-.32V51c4.05,2.16,7,3.89,10.23,5.83L41.79,74H42Z"/><path class="cls-2" d="M81.15,84.82a24.68,24.68,0,0,1-9.55,1.71c-10,0-16.54-6-16.54-15.07s7-15.68,17.85-15.68a22.35,22.35,0,0,1,8.37,1.52l-1.37,4.15a15.48,15.48,0,0,0-7-1.4c-7.62,0-11.74,5-11.74,11.16,0,6.84,4.94,11.05,11.53,11.05a19,19,0,0,0,7.42-1.47Z"/><path class="cls-3" d="M19,7H5V2H39V7H25V41H19Z"/><text class="cls-4" transform="translate(82.06 85.38)">lim<tspan class="cls-5" x="50.17" y="0">a</tspan><tspan class="cls-6" x="68.55" y="0">t</tspan><tspan x="81.06" y="0">e</tspan></text><text class="cls-7" transform="translate(27.39 40.13)">ech</text></g></g></svg>